<svg width="115" height="87" viewBox="0 0 115 87" fill="none" xmlns="http://www.w3.org/2000/svg">
<path d="M86.931 46.8896C86.6924 48.33 106.678 54.4703 106.355 55.8547C101.821 75.3017 91.275 85.2707 79.1228 83.1574C66.1056 80.8936 58.4634 61.4882 62.0537 39.8142C65.6439 18.1402 79.1069 2.4051 92.1242 4.66887C103.472 6.64224 110.045 19.7517 109.344 37.9245C109.241 40.5989 87.3916 44.1092 86.931 46.8896Z" fill="#E3E3E3"/>
<path d="M32.1266 46.8896C31.888 48.33 51.8737 54.4703 51.551 55.8547C47.0168 75.3017 36.4706 85.2707 24.3184 83.1574C11.3011 80.8936 3.659 61.4882 7.24922 39.8142C10.8394 18.1402 24.3025 2.4051 37.3197 4.66887C48.6671 6.64224 55.2408 19.7517 54.5393 37.9245C54.4361 40.5989 32.5871 44.1092 32.1266 46.8896Z" fill="#E3E3E3"/>
</svg>
