<svg width="181" height="98" viewBox="0 0 181 98" fill="none" xmlns="http://www.w3.org/2000/svg">
<path d="M40.5602 97.0977C38.4549 97.8662 36.338 98.1391 34.2094 97.9166C32.088 97.667 30.0753 97.0121 28.1712 95.9519C26.2901 94.8833 24.6379 93.4995 23.2148 91.8006L2.89958 67.5484C1.49206 65.8681 0.614313 64.2139 0.26633 62.5857C-0.0587694 60.9491 0.193967 59.4673 1.02454 58.1402C1.85511 56.8131 3.28871 55.7779 5.32532 55.0345C6.8585 54.4748 8.42699 54.2071 10.0308 54.2311C11.6346 54.2551 13.2039 54.5234 14.7387 55.0358C16.2807 55.5212 17.7341 56.2218 19.0988 57.1376C20.4479 58.0347 21.6386 59.0994 22.6708 60.3316L27.4094 65.9886L20.4758 68.5195L15.7371 62.8625C15.0177 62.0037 14.1982 61.3642 13.2786 60.9442C12.359 60.5241 11.3958 60.4979 10.3889 60.8654C9.4736 61.1995 9.06021 61.7404 9.14876 62.4882C9.23732 63.236 9.62565 64.0206 10.3138 64.8421L30.629 89.0943C31.3171 89.9158 32.1287 90.5459 33.064 90.9846C34.0221 91.415 34.9245 91.4756 35.7712 91.1666C36.8009 90.7907 37.2793 90.2382 37.2064 89.5091C37.1564 88.7716 36.7717 87.9735 36.0523 87.1147L31.3136 81.4577L38.2473 78.9268L42.9859 84.5838C44.3934 86.2641 45.2598 87.9225 45.5849 89.5591C45.91 91.1956 45.6572 92.6775 44.8267 94.0045C44.019 95.3232 42.5968 96.3543 40.5602 97.0977Z" fill="#D95B4F"/>
<path d="M63.0921 88.8C60.3232 89.8107 57.5159 89.8481 54.6702 88.9122C51.8089 87.9576 49.4008 86.3134 47.4459 83.9797L34.5905 68.6331C32.6357 66.2993 31.8143 64.0882 32.1265 61.9996C32.423 59.8923 33.9557 58.3333 36.7246 57.3226C39.4706 56.3203 42.2743 56.2964 45.1356 57.251C48.0042 58.1785 50.416 59.8092 52.3709 62.1429L65.2262 77.4896C67.1811 79.8233 67.9988 82.048 67.6794 84.1636C67.3672 86.2522 65.8381 87.7977 63.0921 88.8ZM58.9634 83.8712C59.8559 83.5454 60.2313 83.0305 60.0897 82.3264C59.9325 81.6037 59.4708 80.7849 58.7045 79.8701L45.8491 64.5235C45.0672 63.59 44.2622 62.8965 43.4341 62.443C42.606 61.9896 41.7458 61.9257 40.8533 62.2515C39.9609 62.5772 39.5854 63.0921 39.727 63.7962C39.8686 64.5002 40.3303 65.319 41.1123 66.2525L53.9676 81.5991C54.7496 82.5326 55.5546 83.2261 56.3826 83.6796C57.2107 84.1331 58.071 84.1969 58.9634 83.8712Z" fill="#D95B4F"/>
<path d="M65.0708 71.3298L60.6137 66.0089L70.5679 62.3754L75.0251 67.6963L65.0708 71.3298Z" fill="#D95B4F"/>
<path d="M98.4789 75.9198C95.4354 77.0307 92.5438 77.0745 89.8041 76.0511C87.0873 75.0194 84.5716 73.122 82.257 70.3588L70.5981 56.4404C68.2678 53.6586 67.1709 51.2433 67.3073 49.1945C67.4509 47.1187 69.0444 45.5253 72.0879 44.4144C75.1314 43.3035 78.023 43.2597 80.7626 44.283C83.5252 45.2981 86.0638 47.1871 88.3784 49.9503L90.3958 52.3587L83.4622 54.8896L80.8348 51.7531C80.1154 50.8942 79.376 50.2256 78.6166 49.747C77.8572 49.2685 77.0885 49.1712 76.3104 49.4552C75.5324 49.7392 75.2678 50.2259 75.5165 50.9152C75.7496 51.5859 76.218 52.3413 76.9218 53.1814L89.8006 68.556C90.5043 69.3962 91.2323 70.069 91.9845 70.5746C92.721 71.0615 93.4783 71.1629 94.2563 70.8789C95.0343 70.5949 95.3183 70.1134 95.108 69.4344C94.8978 68.7554 94.433 67.9865 93.7136 67.1277L91.0863 63.9912L98.0199 61.4603L100.037 63.8687C102.352 66.6318 103.426 69.0555 103.259 71.1397C103.116 73.2155 101.522 74.8089 98.4789 75.9198Z" fill="#D95B4F"/>
<path d="M119.004 68.3911C116.235 69.4018 113.428 69.4392 110.582 68.5032C107.721 67.5487 105.313 65.9045 103.358 63.5708L90.5027 48.2241C88.5478 45.8904 87.7264 43.6792 88.0386 41.5906C88.3351 39.4834 89.8679 37.9244 92.6367 36.9137C95.3827 35.9113 98.1864 35.8875 101.048 36.842C103.916 37.7696 106.328 39.4003 108.283 41.734L121.138 57.0806C123.093 59.4144 123.911 61.639 123.592 63.7547C123.279 65.8433 121.75 67.3887 119.004 68.3911ZM114.876 63.4622C115.768 63.1365 116.143 62.6216 116.002 61.9175C115.845 61.1948 115.383 60.376 114.617 59.4612L101.761 44.1145C100.979 43.1811 100.174 42.4876 99.3462 42.0341C98.5182 41.5806 97.6579 41.5168 96.7655 41.8425C95.873 42.1683 95.4976 42.6832 95.6391 43.3872C95.7807 44.0913 96.2425 44.9101 97.0244 45.8436L109.88 61.1902C110.662 62.1237 111.467 62.8172 112.295 63.2707C113.123 63.7241 113.983 63.788 114.876 63.4622Z" fill="#D95B4F"/>
<path d="M139.519 60.9029C136.75 61.9136 133.943 61.951 131.097 61.0151C128.236 60.0605 125.827 58.4163 123.873 56.0826L111.017 40.736C109.062 38.4022 108.241 36.1911 108.553 34.1025C108.85 31.9952 110.382 30.4362 113.151 29.4255C115.897 28.4232 118.701 28.3993 121.562 29.3539C124.431 30.2814 126.843 31.9121 128.798 34.2458L141.653 49.5925C143.608 51.9262 144.425 54.1509 144.106 56.2665C143.794 58.3551 142.265 59.9006 139.519 60.9029ZM135.39 55.9741C136.283 55.6483 136.658 55.1334 136.516 54.4293C136.359 53.7066 135.897 52.8878 135.131 51.973L122.276 36.6264C121.494 35.6929 120.689 34.9994 119.861 34.5459C119.033 34.0925 118.172 34.0286 117.28 34.3544C116.388 34.6801 116.012 35.195 116.154 35.8991C116.295 36.6031 116.757 37.4219 117.539 38.3554L130.394 53.702C131.176 54.6355 131.981 55.329 132.809 55.7825C133.637 56.236 134.498 56.2998 135.39 55.9741Z" fill="#D95B4F"/>
<path d="M151.158 56.1424L116.674 14.9754L123.607 12.4445L139.982 31.9918L140.325 31.8665L139.892 30.708L136.547 21.4708L143.137 19.0652L146.134 30.9894L169.762 49.3516L162.76 51.9076L148.959 40.7824L148.515 40.3594L148.446 40.3844L149.224 43.0257L158.092 53.6115L151.158 56.1424Z" fill="#D95B4F"/>
<path d="M164.915 36.6402L137.867 7.23958L145.899 4.30773L169.24 35.0615L164.915 36.6402ZM172.763 48.2563L167.555 42.0392L174.763 39.4081L179.971 45.6251L172.763 48.2563Z" fill="#D95B4F"/>
<path d="M41.5372 93.4532C39.432 94.2216 37.315 94.4946 35.1864 94.2721C33.065 94.0225 31.0523 93.3676 29.1483 92.3074C27.2671 91.2388 25.6149 89.855 24.1918 88.1561L3.87661 63.9039C2.46909 62.2236 1.59134 60.5694 1.24336 58.9411C0.918258 57.3045 1.171 55.8227 2.00157 54.4957C2.83214 53.1686 4.26574 52.1334 6.30235 51.3899C7.83553 50.8303 9.40402 50.5625 11.0078 50.5866C12.6116 50.6106 14.1809 50.8788 15.7157 51.3913C17.2577 51.8767 18.7111 52.5773 20.0759 53.4931C21.425 54.3902 22.6156 55.4549 23.6478 56.6871L28.3864 62.344L21.4528 64.8749L16.7141 59.218C15.9947 58.3592 15.1752 57.7197 14.2557 57.2997C13.3361 56.8796 12.3728 56.8533 11.366 57.2208C10.4506 57.555 10.0372 58.0959 10.1258 58.8437C10.2143 59.5915 10.6027 60.3761 11.2908 61.1976L31.606 85.4497C32.2941 86.2712 33.1058 86.9013 34.041 87.3401C34.9991 87.7704 35.9015 87.8311 36.7482 87.522C37.778 87.1462 38.2564 86.5937 38.1835 85.8645C38.1334 85.1271 37.7487 84.3289 37.0293 83.4701L32.2907 77.8132L39.2243 75.2823L43.963 80.9392C45.3705 82.6195 46.2368 84.2779 46.5619 85.9145C46.887 87.5511 46.6343 89.0329 45.8037 90.36C44.996 91.6787 43.5738 92.7098 41.5372 93.4532Z" fill="#FCFCFC"/>
<path d="M64.0692 85.1555C61.3003 86.1662 58.493 86.2036 55.6473 85.2676C52.7859 84.3131 50.3778 82.6689 48.4229 80.3352L35.5676 64.9885C33.6127 62.6548 32.7913 60.4436 33.1035 58.355C33.4001 56.2477 34.9328 54.6888 37.7016 53.6781C40.4476 52.6757 43.2513 52.6519 46.1127 53.6064C48.9813 54.534 51.393 56.1647 53.3479 58.4984L66.2032 73.845C68.1581 76.1788 68.9758 78.4034 68.6564 80.5191C68.3442 82.6077 66.8152 84.1531 64.0692 85.1555ZM59.9404 80.2266C60.8329 79.9009 61.2083 79.386 61.0668 78.6819C60.9096 77.9592 60.4478 77.1404 59.6815 76.2256L46.8262 60.8789C46.0442 59.9455 45.2392 59.252 44.4111 58.7985C43.5831 58.345 42.7228 58.2812 41.8304 58.6069C40.9379 58.9327 40.5625 59.4476 40.704 60.1516C40.8456 60.8557 41.3074 61.6745 42.0893 62.608L54.9446 77.9546C55.7266 78.8881 56.5316 79.5816 57.3597 80.0351C58.1877 80.4885 59.048 80.5524 59.9404 80.2266Z" fill="#FCFCFC"/>
<path d="M66.0479 67.6852L61.5907 62.3643L71.545 58.7309L76.0021 64.0518L66.0479 67.6852Z" fill="#FCFCFC"/>
<path d="M99.4559 72.2753C96.4124 73.3862 93.5208 73.43 90.7811 72.4066C88.0643 71.3749 85.5486 69.4774 83.2341 66.7143L71.5751 52.7959C69.2449 50.0141 68.1479 47.5988 68.2843 45.55C68.4279 43.4741 70.0214 41.8808 73.0649 40.7698C76.1084 39.6589 79 39.6151 81.7397 40.6385C84.5023 41.6535 87.0408 43.5426 89.3554 46.3058L91.3729 48.7142L84.4392 51.2451L81.8119 48.1085C81.0925 47.2497 80.3531 46.581 79.5936 46.1025C78.8342 45.624 78.0655 45.5267 77.2875 45.8107C76.5095 46.0947 76.2448 46.5814 76.4935 47.2707C76.7266 47.9413 77.1951 48.6967 77.8988 49.5369L90.7776 64.9115C91.4814 65.7516 92.2093 66.4245 92.9615 66.9301C93.698 67.4169 94.4553 67.5184 95.2333 67.2344C96.0114 66.9504 96.2953 66.4689 96.0851 65.7899C95.8749 65.1109 95.41 64.342 94.6907 63.4832L92.0633 60.3466L98.9969 57.8157L101.014 60.2241C103.329 62.9873 104.403 65.4109 104.237 67.4951C104.093 69.571 102.499 71.1643 99.4559 72.2753Z" fill="#FCFCFC"/>
<path d="M119.981 64.7466C117.212 65.7572 114.405 65.7946 111.559 64.8587C108.698 63.9041 106.29 62.26 104.335 59.9262L91.4797 44.5796C89.5248 42.2459 88.7035 40.0347 89.0156 37.9461C89.3122 35.8388 90.8449 34.2798 93.6138 33.2691C96.3598 32.2668 99.1634 32.2429 102.025 33.1975C104.893 34.1251 107.305 35.7557 109.26 38.0895L122.115 53.4361C124.07 55.7698 124.888 57.9945 124.569 60.1101C124.256 62.1987 122.727 63.7442 119.981 64.7466ZM115.853 59.8177C116.745 59.4919 117.12 58.977 116.979 58.273C116.822 57.5503 116.36 56.7315 115.594 55.8166L102.738 40.47C101.956 39.5365 101.151 38.843 100.323 38.3896C99.4952 37.9361 98.6349 37.8722 97.7425 38.198C96.8501 38.5238 96.4746 39.0387 96.6162 39.7427C96.7577 40.4468 97.2195 41.2656 98.0014 42.199L110.857 57.5457C111.639 58.4792 112.444 59.1727 113.272 59.6261C114.1 60.0796 114.96 60.1435 115.853 59.8177Z" fill="#FCFCFC"/>
<path d="M140.496 57.2584C137.727 58.2691 134.92 58.3065 132.074 57.3705C129.213 56.416 126.804 54.7718 124.85 52.4381L111.994 37.0914C110.039 34.7577 109.218 32.5465 109.53 30.4579C109.827 28.3507 111.359 26.7917 114.128 25.781C116.874 24.7786 119.678 24.7548 122.539 25.7094C125.408 26.6369 127.82 28.2676 129.775 30.6013L142.63 45.9479C144.585 48.2817 145.402 50.5063 145.083 52.622C144.771 54.7106 143.242 56.256 140.496 57.2584ZM136.367 52.3295C137.26 52.0038 137.635 51.4889 137.493 50.7848C137.336 50.0621 136.874 49.2433 136.108 48.3285L123.253 32.9818C122.471 32.0484 121.666 31.3549 120.838 30.9014C120.01 30.4479 119.149 30.3841 118.257 30.7098C117.365 31.0356 116.989 31.5505 117.131 32.2546C117.272 32.9586 117.734 33.7774 118.516 34.7109L131.371 50.0575C132.153 50.991 132.958 51.6845 133.786 52.138C134.614 52.5914 135.475 52.6553 136.367 52.3295Z" fill="#FCFCFC"/>
<path d="M152.135 52.4979L117.651 11.3309L124.584 8.79996L140.959 28.3473L141.302 28.222L140.869 27.0635L137.524 17.8263L144.114 15.4206L147.111 27.3449L170.739 45.7071L163.737 48.263L149.936 37.1378L149.492 36.7148L149.423 36.7399L150.201 39.3812L159.069 49.967L152.135 52.4979Z" fill="#FCFCFC"/>
<path d="M165.892 32.9956L138.844 3.59505L146.876 0.663208L170.217 31.4169L165.892 32.9956ZM173.74 44.6118L168.532 38.3947L175.74 35.7636L180.948 41.9806L173.74 44.6118Z" fill="#FCFCFC"/>
</svg>
