<svg width="126" height="96" viewBox="0 0 126 96" fill="none" xmlns="http://www.w3.org/2000/svg">
<path d="M108.662 62.6588C116.208 59.1868 124.203 52.5989 124.203 40.2245C124.203 27.3158 112.705 18.3243 95.6361 18.3243C82.335 18.3243 70.7777 22.7682 65.7547 32.6054C67.024 33.0691 68.4276 33.5328 71.2349 35.8511C72.9598 37.2756 75.0899 40.0242 76.3817 43.2699C77.6734 46.5156 78.2532 50.225 77.7853 52.7138C79.5978 52.7449 81.4045 52.4799 83.0594 51.8867C86.0239 50.9075 88.4494 48.4148 90.6054 45.9221L94.1089 41.8269C95.3666 40.4025 97.6125 42.094 96.5345 43.4294L95.0971 45.1208C88.4444 52.8735 76.8076 60.7935 69.8313 69.168C71.2346 73.4085 69.8309 80.3636 64.2163 85.0003C63.4078 93.1016 69.764 94.3516 77.31 95.2419C87.2816 96.3102 102.374 96.2212 112.345 95.1529C120.79 94.2626 126 88.654 126 80.0186C126 71.1161 120.161 65.1515 111.088 65.1515C103.003 65.1515 97.7921 69.6027 94.648 75.3003C93.6598 77.1698 90.9648 76.2796 92.0428 74.232C94.8276 68.2673 100.487 63.9941 108.662 62.6588Z" fill="white"/>
<path d="M30.319 72.4107C24.053 72.7112 18.1914 72.2104 11.9255 71.0086C5.35635 69.6064 0 64.6989 0 56.887C0 51.8793 2.22339 47.4726 4.54784 44.2677C13.0371 32.8502 24.8615 18.9289 35.5742 7.51148C39.5157 3.4052 45.7816 0 52.856 0C61.0422 0 66.1964 5.20796 67.4091 13.5207C68.5208 21.4328 66.6006 27.0413 62.9624 31.4481C51.5422 29.445 42.2444 32.9504 35.0689 39.9611C33.9572 40.9626 35.8774 42.8655 37.0902 41.7638C42.4465 36.656 49.3188 33.5513 56.3932 33.5513C69.5315 33.5513 75.0899 43.166 75.0899 51.679C75.0899 61.6943 66.4996 68.9053 57.1007 69.9069C54.9784 70.1072 55.3826 72.0101 57.2017 71.9099C59.9305 71.7096 63.4677 71.0085 67.1059 69.1056C69.7336 78.0193 62.356 87.033 49.0156 87.033C35.6753 87.033 28.2977 80.0223 30.319 72.4107Z" fill="white"/>
</svg>
