<svg width="261" height="39" viewBox="0 0 261 39" fill="none" xmlns="http://www.w3.org/2000/svg">
<path d="M31.08 13.96H36.12V19.6H31.08V38.48H24.84V0.920044H31.08V13.96ZM20 32.64H0.47998V3.28004H20V32.64ZM13.76 8.96004H6.71998V26.96H13.76V8.96004Z" fill="#F3F3F3"/>
<path d="M71.1297 38.48H64.8897V0.920044H71.1297V38.48ZM49.7297 33.8C43.9297 33.8 39.1697 30.28 39.1697 20.96V15.16C39.1697 5.84004 43.9297 2.32004 49.7297 2.32004C55.4897 2.32004 60.2497 5.84004 60.2497 15.16V20.96C60.2497 30.28 55.4897 33.8 49.7297 33.8ZM49.7297 28.16C51.9697 28.16 54.0097 26.56 54.0097 20.96V15.16C54.0097 9.56004 51.9697 7.96004 49.7297 7.96004C47.4897 7.96004 45.4097 9.56004 45.4097 15.16V20.96C45.4097 26.56 47.4897 28.16 49.7297 28.16Z" fill="#F3F3F3"/>
<path d="M109.059 38.48H102.819V0.920044H109.059V38.48ZM86.1794 33.4H77.6994V15.4H90.5794V8.84004H77.6994V3.28004H96.8194V20.84H83.9394V27.84H87.2994C91.0594 27.84 95.1794 27.52 99.5794 26.84L100.339 32.2C96.0194 33 91.2594 33.4 86.1794 33.4Z" fill="#F3F3F3"/>
<path d="M124.549 12.24H145.989V16.24H118.269V1.32004H145.229V5.40004H124.549V6.72004H145.229V10.68H124.549V12.24ZM113.989 22.04V17.56H149.509V22.04H113.989ZM145.589 32.92H124.149V34.44H146.589V38.68H117.909V28.88H139.349V27.44H117.709V23.36H145.589V32.92Z" fill="#F3F3F3"/>
<path d="M156.239 20.96L154.079 15.6C162.239 13.04 165.879 10.32 166.679 7.68004H156.199V2.28004H183.159V7.68004H172.999C172.919 8.56004 172.719 9.44004 172.399 10.28L185.279 15.64L182.679 20.96L168.799 15.12C166.079 17.4 161.959 19.36 156.239 20.96ZM151.919 23.4H187.439V29.08H179.439V38.92H173.199V29.08H166.159V38.92H159.919V29.08H151.919V23.4Z" fill="#F3F3F3"/>
<path d="M220.728 13.96H225.768V19.6H220.728V38.48H214.488V0.920044H220.728V13.96ZM196.568 27.84H199.768C203.448 27.84 207.328 27.52 211.448 26.88L212.168 32.24C208.128 33 203.648 33.4 198.648 33.4H190.328V15.4H202.608V8.84004H190.328V3.28004H208.848V20.84H196.568V27.84Z" fill="#F3F3F3"/>
<path d="M254.538 38.48V0.920044H260.778V38.48H254.538ZM242.778 9.16004H230.178V3.48004H249.098V7.56004C249.098 18.32 243.458 27.56 232.658 34.48L228.858 29.52C238.778 23.4 242.618 15.4 242.778 9.16004Z" fill="#F3F3F3"/>
</svg>
